<?xml version="1.0" encoding="utf-8"?>
<!-- Generator: Adobe Illustrator 25.2.0, SVG Export Plug-In . SVG Version: 6.00 Build 0)  -->
<svg version="1.1" id="Capa_1" xmlns="http://www.w3.org/2000/svg" xmlns:xlink="http://www.w3.org/1999/xlink" x="0px" y="0px"
	 viewBox="0 0 421.7 277.4" style="enable-background:new 0 0 421.7 277.4;" xml:space="preserve">
<style type="text/css">
	.st0{fill:url(#SVGID_1_);}
	.st1{fill:#FFFFFF;}
</style>
<g>
	<linearGradient id="SVGID_1_" gradientUnits="userSpaceOnUse" x1="10.8696" y1="138.6956" x2="410.8696" y2="138.6956">
		<stop  offset="9.804000e-03" style="stop-color:#D94692"/>
		<stop  offset="0.1191" style="stop-color:#DC508D"/>
		<stop  offset="0.3551" style="stop-color:#E36577"/>
		<stop  offset="0.697" style="stop-color:#EE7F38"/>
		<stop  offset="0.7794" style="stop-color:#F1851D"/>
	</linearGradient>
	<path class="st0" d="M396,134.6c-9.4-14.1-22.5-25-38-31.5c-7.1-26.8-31.1-45.5-58.8-45.5c-6.1,0-12.1,0.9-17.9,2.7
		c-19.5-33.3-55-53.9-93.1-53.9c-35.1,0-68.3,17.4-88.6,46.6c-3.3,4.7-2.1,11.2,2.6,14.5c2.3,1.6,5.1,2.2,7.8,1.7
		c2.7-0.5,5.1-2,6.7-4.3c16.4-23.6,43.1-37.6,71.4-37.6c33.9,0,64.2,19.4,78.8,50.7l4.6,9.7l9.6-4.9c5.7-2.9,11.8-4.4,18-4.4
		c19.6,0,36.2,14.3,39.5,34l1,6.1l5.9,2c26.5,9.1,44.4,34.4,44.4,62.9c0,36.7-29.3,66.5-65.3,66.6H90.5C58.1,250,31.7,223,31.7,190
		c0-8.8,1.8-17.4,5.4-25.3c2.4-5.2,0.1-11.4-5.2-13.8c-5.2-2.4-11.4-0.1-13.8,5.2c-4.9,10.7-7.3,22.1-7.3,34
		c0,44.5,35.7,80.8,79.6,81h234.2c47.5-0.1,86.2-39.3,86.2-87.5C410.9,166,405.7,149.1,396,134.6z"/>
	<g>
		<path class="st1" d="M133.1,232.6c-16.3,0-29-7.8-29.8-23.5H125c0.4,5.5,3.6,7.4,7.4,7.4c3.6,0,6.4-1.9,6.4-5.3
			c-0.1-11.8-35.7-6.2-35.4-31.7c0-14.4,12-22,27.5-22c16.8,0,27.9,8.2,28.6,22.8h-22.2c-0.2-4.6-3-6.7-6.8-6.7
			c-3-0.1-5.4,1.7-5.4,5.2c0,10.9,35.3,7.4,35.3,30.9C160.4,222.5,150.5,232.6,133.1,232.6z"/>
		<path class="st1" d="M191.4,172.8c8.3,0,14.1,3.6,17.2,8.8v-8.1H229v58.3h-20.4v-8.1c-3,5.2-8.9,8.8-17.2,8.8
			c-13.8,0-24.9-11.3-24.9-30C166.6,184,177.6,172.8,191.4,172.8z M198,190.6c-5.8,0-10.6,4.2-10.6,12.1c0,7.8,4.8,12.2,10.6,12.2
			c5.7,0,10.6-4.3,10.6-12.2C208.6,194.8,203.7,190.6,198,190.6z"/>
		<path class="st1" d="M240.6,154.9H261v77h-20.4V154.9z"/>
		<path class="st1" d="M299,232.6c-17.3,0-29.6-11.3-29.6-30c0-18.5,12.2-29.8,29.6-29.8c17.3,0,29.4,11.1,29.4,29.2
			c0,1.6-0.1,3.2-0.3,4.8h-38.6c0.4,6.8,4.1,9.5,8.6,9.5c4,0,6.1-2.2,7.3-4.6h21.7C324.5,223.7,313.5,232.6,299,232.6z M289.6,196.9
			h18c0-5.2-4.1-8-8.7-8C294,188.9,290.5,191.6,289.6,196.9z"/>
	</g>
	<g>
		<path class="st1" d="M75.7,116.6H50.9v29.4H30.5V72.7h20.4v27.6h24.9V72.7h20.4v73.3H75.7V116.6z"/>
		<path class="st1" d="M132.8,146.8c-17.4,0-30.5-11.3-30.5-30c0-18.5,13.2-29.8,30.6-29.8s30.6,11.3,30.6,29.8
			C163.5,135.5,150.2,146.8,132.8,146.8z M132.8,129.1c5.2,0,10-3.8,10-12.3c0-8.3-4.7-12.2-9.9-12.2c-5.2,0-9.8,3.8-9.8,12.2
			C123.2,125.3,127.5,129.1,132.8,129.1z"/>
		<path class="st1" d="M194.6,146.8c-16.2,0-27-8.7-27.9-20.4h19.8c0.5,3.8,3.7,5.9,8,5.9c3.4,0,5.4-1.7,5.4-3.7c0-8.5-31-1.6-31-23
			c0-10.2,8.4-18.6,24.2-18.6c15.9,0,24.2,8.8,25.6,20.4h-18.4c-0.6-3.6-3.2-5.8-7.6-5.8c-3.3,0-5.1,1.4-5.1,3.5
			c0,8.3,31.1,1.7,31.2,23.8C218.8,139.1,209.7,146.8,194.6,146.8z"/>
		<path class="st1" d="M230,104.7h-7.2v-17h7.2V73.6h20.5v14.1h10.6v17h-10.6v19.6c0,3.1,1.4,4.5,4.8,4.5h5.9v17.4h-8.8
			c-12.9,0-22.4-5.4-22.4-22.2V104.7z"/>
	</g>
</g>
</svg>
